# xmcd
#
# Track frame offsets: 
#        150
#        18327
#        37820
#        51115
#        72759
#        86080
#        104324
#        122565
#        134014
#        149342
#        164872
#        184259
#        197146
#        215745
#        231005
#        244965
#        259025
#
# Disc length: 3667 seconds
#
# Revision: 0
# Processed by: cddbd v1.5.2PL0 Copyright (c) Steve Scherf et al.
# Submitted via: ExactAudioCopy v0.99pb4
#
DISCID=000e5111
DTITLE=Nana Mouskouri - Les 50 Plus Belles Chansons - Disque 2
DYEAR=2007
DGENRE=Ballad
TTITLE0=Habanera
TTITLE1=Répondez-Moi
TTITLE2=Il N'Est Jamais Trop Tard Pour Vivre
TTITLE3=Chanter La Vie
TTITLE4=Celui Que J'Aime
TTITLE5=Que Je Sois Un Ange
TTITLE6=La Vague
TTITLE7=La Petite Rose
TTITLE8=Toi Qui T'En Vas
TTITLE9=Adieu Angelina
TTITLE10=Comme Un Pont Sur L'Eau Trouble
TTITLE11=L'Enfant Au Tambour
TTITLE12=Aux Marches Du Palais
TTITLE13=Dans Le Soleil Et Dans Le Vent
TTITLE14=Le Temps Des Cerises
TTITLE15=Chèvrefeuille Que Tu Es Loin
TTITLE16=Le Voyageur Du Rêve
EXTD=
EXTT0=
EXTT1=
EXTT2=
EXTT3=
EXTT4=
EXTT5=
EXTT6=
EXTT7=
EXTT8=
EXTT9=
EXTT10=
EXTT11=
EXTT12=
EXTT13=
EXTT14=
EXTT15=
EXTT16=
PLAYORDER=
